<?xml version="1.0" encoding="UTF-8"?><svg id="a" xmlns="http://www.w3.org/2000/svg" viewBox="0 0 638 134"><defs><style>.b{fill:#0064c8;}.c{fill:#fff;}</style></defs><g><path class="c" d="M169.98,76.51c3.41,2.98,5.11,7.44,5.11,13.38,0,8.69-3.11,14.81-9.33,18.37-6.22,3.56-14.93,5.34-26.12,5.34h-26.18V32.25h23.01c11.43,0,20.15,1.62,26.18,4.87,6.03,3.25,9.04,8.55,9.04,15.91,0,4.77-1.43,8.63-4.28,11.56-2.86,2.93-6.4,4.91-10.62,5.93,5.4,1.02,9.8,3.01,13.21,5.99Zm-37.27-30.64v18.9h7.16c8.14,0,12.21-3.29,12.21-9.86,0-3.29-1.1-5.61-3.29-6.98-2.19-1.37-5.67-2.05-10.45-2.05h-5.63Zm18.61,51.48c2.62-1.53,3.93-4.36,3.93-8.51,0-7.51-4.7-11.27-14.09-11.27h-8.45v22.07h7.04c5.09,0,8.94-.76,11.56-2.29Z"/><path class="c" d="M240,113.61h-16.08l-.82-7.87c-4.54,6.57-10.84,9.86-18.9,9.86-5.71,0-10.04-1.72-12.97-5.17s-4.4-8.26-4.4-14.44V51.27h18.55v42.38c0,3.05,.49,5.19,1.47,6.4,.98,1.21,2.48,1.82,4.52,1.82,3.91,0,7.28-2.42,10.1-7.28V51.27h18.55v62.34Z"/><path class="c" d="M290.95,51.27c3.91,1.33,7.36,3.21,10.33,5.63l-6.81,10.45c-5.09-3.21-10.21-4.81-15.38-4.81-2.43,0-4.29,.41-5.58,1.23-1.29,.82-1.94,1.98-1.94,3.46,0,1.17,.29,2.13,.88,2.88,.59,.74,1.78,1.51,3.58,2.29,1.8,.78,4.58,1.72,8.33,2.82,6.5,1.88,11.33,4.33,14.5,7.34,3.17,3.01,4.75,7.18,4.75,12.5,0,4.23-1.21,7.88-3.64,10.98-2.43,3.09-5.75,5.46-9.98,7.1-4.23,1.64-8.92,2.47-14.09,2.47s-10.12-.82-14.62-2.47c-4.5-1.64-8.32-3.91-11.45-6.81l9.04-10.1c5.24,4.07,10.76,6.11,16.55,6.11,2.82,0,5.03-.51,6.63-1.53,1.6-1.02,2.41-2.46,2.41-4.34,0-1.48-.31-2.66-.94-3.52-.63-.86-1.84-1.66-3.64-2.41-1.8-.74-4.66-1.66-8.57-2.76-6.18-1.8-10.8-4.3-13.85-7.51-3.05-3.21-4.58-7.2-4.58-11.97,0-3.6,1.04-6.83,3.11-9.68,2.07-2.86,5.05-5.12,8.92-6.81,3.87-1.68,8.35-2.52,13.44-2.52,4.46,0,8.65,.67,12.56,2Z"/><path class="c" d="M332.1,21.39c2.07,2,3.11,4.52,3.11,7.57s-1.04,5.58-3.11,7.57c-2.08,2-4.72,2.99-7.92,2.99s-5.83-1-7.87-2.99c-2.04-2-3.05-4.52-3.05-7.57s1.02-5.58,3.05-7.57c2.03-2,4.66-2.99,7.87-2.99s5.85,1,7.92,2.99Zm1.47,29.88v62.34h-18.55V51.27h18.55Z"/><path class="c" d="M399.19,54.2c3.05,3.29,4.58,7.91,4.58,13.85v45.55h-18.55v-42.38c0-3.13-.49-5.3-1.47-6.52-.98-1.21-2.45-1.82-4.4-1.82-3.76,0-7.36,2.7-10.8,8.1v42.61h-18.55V51.27h16.2l1.29,7.4c2.66-3.13,5.54-5.48,8.63-7.04,3.09-1.56,6.55-2.35,10.39-2.35,5.4,0,9.63,1.64,12.68,4.93Z"/><path class="c" d="M473.61,87.9h-38.62c.62,5.24,2.11,8.92,4.46,11.04,2.35,2.11,5.59,3.17,9.74,3.17,2.5,0,4.93-.45,7.28-1.35,2.35-.9,4.89-2.29,7.63-4.17l7.63,10.33c-7.28,5.79-15.38,8.69-24.3,8.69-10.1,0-17.84-2.97-23.24-8.92-5.4-5.95-8.1-13.93-8.1-23.95,0-6.34,1.13-12.03,3.4-17.08,2.27-5.05,5.59-9.04,9.98-11.97,4.38-2.93,9.63-4.4,15.73-4.4,9,0,16.04,2.82,21.13,8.45,5.09,5.64,7.63,13.46,7.63,23.48,0,2.58-.12,4.81-.35,6.69Zm-17.84-11.98c-.16-9.55-3.52-14.32-10.1-14.32-3.21,0-5.69,1.17-7.45,3.52-1.76,2.35-2.84,6.22-3.23,11.62h20.78v-.82Z"/><path class="c" d="M520.81,51.27c3.91,1.33,7.36,3.21,10.33,5.63l-6.81,10.45c-5.09-3.21-10.21-4.81-15.38-4.81-2.43,0-4.29,.41-5.58,1.23-1.29,.82-1.94,1.98-1.94,3.46,0,1.17,.29,2.13,.88,2.88,.59,.74,1.78,1.51,3.58,2.29,1.8,.78,4.58,1.72,8.33,2.82,6.5,1.88,11.33,4.33,14.5,7.34,3.17,3.01,4.75,7.18,4.75,12.5,0,4.23-1.21,7.88-3.64,10.98-2.43,3.09-5.75,5.46-9.98,7.1-4.23,1.64-8.92,2.47-14.09,2.47s-10.12-.82-14.62-2.47c-4.5-1.64-8.32-3.91-11.45-6.81l9.04-10.1c5.24,4.07,10.76,6.11,16.55,6.11,2.82,0,5.03-.51,6.63-1.53,1.6-1.02,2.41-2.46,2.41-4.34,0-1.48-.31-2.66-.94-3.52-.63-.86-1.84-1.66-3.64-2.41-1.8-.74-4.66-1.66-8.57-2.76-6.18-1.8-10.8-4.3-13.85-7.51-3.05-3.21-4.58-7.2-4.58-11.97,0-3.6,1.04-6.83,3.11-9.68,2.07-2.86,5.05-5.12,8.92-6.81,3.87-1.68,8.35-2.52,13.44-2.52,4.46,0,8.65,.67,12.56,2Z"/><path class="c" d="M578.56,51.27c3.91,1.33,7.36,3.21,10.33,5.63l-6.81,10.45c-5.09-3.21-10.21-4.81-15.38-4.81-2.43,0-4.29,.41-5.58,1.23-1.29,.82-1.94,1.98-1.94,3.46,0,1.17,.29,2.13,.88,2.88,.59,.74,1.78,1.51,3.58,2.29,1.8,.78,4.58,1.72,8.33,2.82,6.5,1.88,11.33,4.33,14.5,7.34,3.17,3.01,4.75,7.18,4.75,12.5,0,4.23-1.21,7.88-3.64,10.98-2.43,3.09-5.75,5.46-9.98,7.1-4.23,1.64-8.92,2.47-14.09,2.47s-10.12-.82-14.62-2.47c-4.5-1.64-8.32-3.91-11.45-6.81l9.04-10.1c5.24,4.07,10.76,6.11,16.55,6.11,2.82,0,5.03-.51,6.63-1.53,1.6-1.02,2.41-2.46,2.41-4.34,0-1.48-.31-2.66-.94-3.52-.63-.86-1.84-1.66-3.64-2.41-1.8-.74-4.66-1.66-8.57-2.76-6.18-1.8-10.8-4.3-13.85-7.51-3.05-3.21-4.58-7.2-4.58-11.97,0-3.6,1.04-6.83,3.11-9.68,2.07-2.86,5.05-5.12,8.92-6.81,3.87-1.68,8.35-2.52,13.44-2.52,4.46,0,8.65,.67,12.56,2Z"/></g><g><path class="b" d="M55.69,43.43c0,1.58,.45,2.87,1.36,3.85,.91,.98,2.18,1.47,3.83,1.47s2.92-.49,3.83-1.47c.91-.98,1.36-2.26,1.36-3.85s-.45-2.87-1.36-3.85c-.91-.98-2.18-1.47-3.83-1.47s-2.92,.49-3.83,1.47c-.91,.98-1.36,2.26-1.36,3.85m-6.48,0c0-1.67,.3-3.18,.91-4.54,.6-1.35,1.43-2.51,2.49-3.48,1.05-.96,2.29-1.71,3.72-2.23,1.43-.52,2.95-.78,4.56-.78s3.13,.26,4.56,.78c1.43,.52,2.67,1.26,3.72,2.23,1.05,.97,1.88,2.13,2.49,3.48,.6,1.36,.91,2.87,.91,4.54s-.3,3.18-.91,4.54c-.61,1.36-1.43,2.52-2.49,3.48-1.05,.97-2.29,1.71-3.72,2.23-1.43,.52-2.95,.78-4.56,.78s-3.13-.26-4.56-.78c-1.43-.52-2.67-1.26-3.72-2.23-1.05-.97-1.88-2.13-2.49-3.48-.6-1.35-.91-2.87-.91-4.54"/><path class="b" d="M61.16,66.42c-2.07,0-3.75,.59-5.02,1.78-1.28,1.19-1.92,2.85-1.92,5s.64,3.81,1.92,5c1.28,1.19,2.95,1.78,5.02,1.78s3.75-.59,5.03-1.78c1.28-1.19,1.92-2.85,1.92-5s-.64-3.81-1.92-5c-1.28-1.19-2.96-1.78-5.03-1.78m28.96-7.79v8.47h-18.18v.11c1.32,.98,2.25,2.23,2.79,3.76,.55,1.52,.82,3.17,.82,4.94,0,1.96-.4,3.71-1.21,5.25-.81,1.54-1.89,2.85-3.25,3.92-1.36,1.07-2.91,1.9-4.66,2.48-1.75,.58-3.59,.88-5.5,.88-2.07,0-3.97-.32-5.7-.96-1.73-.64-3.23-1.55-4.49-2.74-1.26-1.19-2.24-2.61-2.94-4.26-.7-1.66-1.04-3.5-1.04-5.53,0-.98,.13-1.9,.39-2.77,.26-.87,.6-1.67,1.02-2.4,.41-.73,.88-1.37,1.38-1.92,.51-.55,1.01-.99,1.5-1.33v-.11h-3.61v-7.79h42.68Z"/><path class="b" d="M63.41,104.52c-.49,0-1.1,.02-1.84,.06s-1.44,.17-2.12,.37c-.68,.2-1.25,.5-1.73,.91-.48,.4-.71,.97-.71,1.69,0,.78,.33,1.35,.99,1.73,.66,.37,1.35,.56,2.08,.56,.63,0,1.25-.09,1.84-.26,.59-.17,1.12-.42,1.58-.73,.46-.32,.83-.72,1.1-1.21,.27-.49,.41-1.07,.41-1.73v-1.38h-1.6Zm1.6,6.57h-.09c-.72,1.12-1.68,1.93-2.87,2.42-1.2,.49-2.46,.73-3.78,.73-.98,0-1.92-.14-2.83-.41-.91-.27-1.71-.68-2.4-1.23-.69-.55-1.24-1.23-1.64-2.03-.4-.81-.61-1.74-.61-2.81,0-1.21,.22-2.23,.67-3.07,.45-.84,1.05-1.53,1.82-2.08,.76-.55,1.63-.97,2.62-1.28,.98-.3,1.99-.53,3.05-.67,1.05-.14,2.1-.23,3.16-.26,1.05-.03,2.02-.04,2.92-.04,0-1.15-.41-2.07-1.23-2.74-.82-.68-1.79-1.02-2.92-1.02-1.07,0-2.04,.22-2.92,.67-.88,.45-1.66,1.06-2.36,1.84l-3.46-3.54c1.21-1.12,2.62-1.97,4.24-2.53,1.61-.56,3.29-.84,5.01-.84,1.9,0,3.46,.24,4.69,.71,1.22,.48,2.2,1.17,2.94,2.1,.74,.92,1.25,2.05,1.53,3.39,.29,1.34,.43,2.89,.43,4.65v10.68h-5.97v-2.64Z"/></g></svg>