<?xml version="1.0" encoding="UTF-8"?><svg id="a" xmlns="http://www.w3.org/2000/svg" viewBox="0 0 778 134"><defs><style>.b{fill:#0064c8;}.c{fill:#fff;}</style></defs><g><path class="c" d="M332.9,84.79c3.56,3.11,5.34,7.78,5.34,14,0,9.09-3.25,15.49-9.76,19.22-6.51,3.73-15.62,5.59-27.32,5.59h-27.38V38.5h24.07c11.95,0,21.08,1.7,27.38,5.09,6.3,3.4,9.45,8.94,9.45,16.64,0,4.99-1.49,9.03-4.48,12.09-2.99,3.07-6.69,5.14-11.11,6.2,5.65,1.07,10.25,3.15,13.81,6.26Zm-38.98-32.05v19.77h7.49c8.51,0,12.77-3.44,12.77-10.31,0-3.44-1.15-5.87-3.44-7.31-2.29-1.43-5.94-2.15-10.93-2.15h-5.89Zm19.46,53.84c2.74-1.6,4.11-4.56,4.11-8.9,0-7.86-4.91-11.79-14.73-11.79h-8.84v23.08h7.37c5.32,0,9.35-.8,12.09-2.39Z"/><path class="c" d="M406.14,123.59h-16.82l-.86-8.23c-4.75,6.88-11.34,10.31-19.77,10.31-5.98,0-10.5-1.8-13.57-5.4-3.07-3.6-4.6-8.63-4.6-15.1V58.39h19.4v44.33c0,3.19,.51,5.42,1.54,6.69,1.02,1.27,2.6,1.9,4.73,1.9,4.09,0,7.61-2.54,10.56-7.61V58.39h19.4V123.59Z"/><path class="c" d="M459.42,58.39c4.09,1.39,7.69,3.36,10.81,5.89l-7.12,10.93c-5.32-3.36-10.68-5.03-16.09-5.03-2.54,0-4.48,.43-5.83,1.29-1.35,.86-2.03,2.07-2.03,3.62,0,1.23,.31,2.23,.92,3.01,.61,.78,1.86,1.58,3.74,2.39,1.88,.82,4.79,1.8,8.72,2.95,6.79,1.96,11.85,4.52,15.16,7.67,3.32,3.15,4.97,7.51,4.97,13.08,0,4.42-1.27,8.25-3.81,11.48-2.54,3.23-6.02,5.71-10.44,7.43-4.42,1.72-9.33,2.58-14.73,2.58s-10.58-.86-15.29-2.58c-4.71-1.72-8.7-4.09-11.97-7.12l9.46-10.56c5.48,4.26,11.25,6.39,17.31,6.39,2.95,0,5.26-.53,6.94-1.6,1.68-1.06,2.52-2.58,2.52-4.54,0-1.55-.33-2.78-.98-3.68-.66-.9-1.92-1.74-3.81-2.52-1.88-.78-4.87-1.74-8.96-2.88-6.47-1.88-11.3-4.5-14.49-7.86-3.19-3.36-4.79-7.53-4.79-12.52,0-3.76,1.08-7.14,3.25-10.13,2.17-2.99,5.28-5.36,9.33-7.12,4.05-1.76,8.74-2.64,14.06-2.64,4.67,0,9.04,.7,13.14,2.09Z"/><path class="c" d="M502.46,27.14c2.17,2.09,3.25,4.73,3.25,7.92s-1.09,5.83-3.25,7.92c-2.17,2.09-4.93,3.13-8.29,3.13s-6.1-1.04-8.23-3.13c-2.13-2.09-3.19-4.73-3.19-7.92s1.06-5.83,3.19-7.92c2.13-2.09,4.87-3.13,8.23-3.13s6.12,1.04,8.29,3.13Zm1.53,31.25V123.59h-19.4V58.39h19.4Z"/><path class="c" d="M572.63,61.46c3.19,3.44,4.79,8.27,4.79,14.49v47.64h-19.4v-44.33c0-3.27-.51-5.55-1.53-6.81-1.02-1.27-2.56-1.9-4.6-1.9-3.93,0-7.7,2.82-11.3,8.47v44.57h-19.4V58.39h16.94l1.35,7.74c2.78-3.27,5.79-5.73,9.02-7.37,3.23-1.64,6.85-2.46,10.87-2.46,5.65,0,10.07,1.72,13.26,5.16Z"/><path class="c" d="M650.47,96.7h-40.4c.65,5.48,2.21,9.33,4.67,11.54,2.46,2.21,5.85,3.31,10.19,3.31,2.62,0,5.16-.47,7.61-1.41,2.46-.94,5.12-2.39,7.98-4.36l7.98,10.81c-7.61,6.06-16.09,9.09-25.42,9.09-10.56,0-18.66-3.11-24.31-9.33-5.65-6.22-8.47-14.57-8.47-25.05,0-6.63,1.19-12.58,3.56-17.86,2.37-5.28,5.85-9.46,10.44-12.52,4.58-3.07,10.07-4.6,16.45-4.6,9.41,0,16.78,2.95,22.1,8.84,5.32,5.89,7.98,14.08,7.98,24.56,0,2.7-.12,5.03-.37,7Zm-18.66-12.52c-.16-9.99-3.68-14.98-10.56-14.98-3.36,0-5.95,1.23-7.8,3.68-1.84,2.46-2.97,6.51-3.38,12.16h21.73v-.86Z"/><path class="c" d="M699.83,58.39c4.09,1.39,7.69,3.36,10.81,5.89l-7.12,10.93c-5.32-3.36-10.68-5.03-16.09-5.03-2.54,0-4.48,.43-5.83,1.29-1.35,.86-2.03,2.07-2.03,3.62,0,1.23,.31,2.23,.92,3.01,.61,.78,1.86,1.58,3.74,2.39,1.88,.82,4.79,1.8,8.72,2.95,6.79,1.96,11.85,4.52,15.16,7.67,3.32,3.15,4.97,7.51,4.97,13.08,0,4.42-1.27,8.25-3.81,11.48-2.54,3.23-6.02,5.71-10.44,7.43-4.42,1.72-9.33,2.58-14.73,2.58s-10.58-.86-15.29-2.58c-4.71-1.72-8.7-4.09-11.97-7.12l9.46-10.56c5.48,4.26,11.25,6.39,17.31,6.39,2.95,0,5.26-.53,6.94-1.6,1.68-1.06,2.52-2.58,2.52-4.54,0-1.55-.33-2.78-.98-3.68-.66-.9-1.92-1.74-3.81-2.52-1.88-.78-4.87-1.74-8.96-2.88-6.47-1.88-11.3-4.5-14.49-7.86-3.19-3.36-4.79-7.53-4.79-12.52,0-3.76,1.08-7.14,3.25-10.13,2.17-2.99,5.28-5.36,9.33-7.12,4.05-1.76,8.74-2.64,14.06-2.64,4.67,0,9.04,.7,13.14,2.09Z"/><path class="c" d="M760.24,58.39c4.09,1.39,7.69,3.36,10.81,5.89l-7.12,10.93c-5.32-3.36-10.68-5.03-16.09-5.03-2.54,0-4.48,.43-5.83,1.29-1.35,.86-2.03,2.07-2.03,3.62,0,1.23,.31,2.23,.92,3.01,.61,.78,1.86,1.58,3.74,2.39,1.88,.82,4.79,1.8,8.72,2.95,6.79,1.96,11.85,4.52,15.16,7.67,3.32,3.15,4.97,7.51,4.97,13.08,0,4.42-1.27,8.25-3.81,11.48-2.54,3.23-6.02,5.71-10.44,7.43-4.42,1.72-9.33,2.58-14.73,2.58s-10.58-.86-15.29-2.58c-4.71-1.72-8.7-4.09-11.97-7.12l9.46-10.56c5.48,4.26,11.25,6.39,17.31,6.39,2.95,0,5.26-.53,6.94-1.6,1.68-1.06,2.52-2.58,2.52-4.54,0-1.55-.33-2.78-.98-3.68-.66-.9-1.92-1.74-3.81-2.52-1.88-.78-4.87-1.74-8.96-2.88-6.47-1.88-11.3-4.5-14.49-7.86-3.19-3.36-4.79-7.53-4.79-12.52,0-3.76,1.08-7.14,3.25-10.13,2.17-2.99,5.28-5.36,9.33-7.12,4.05-1.76,8.74-2.64,14.06-2.64,4.67,0,9.04,.7,13.14,2.09Z"/></g><g><path class="b" d="M34.55,101.74c4.32,0,7.82-1.24,10.49-3.71,2.67-2.47,4-5.95,4-10.43,0-4.48-1.33-7.95-4-10.43-2.67-2.47-6.17-3.71-10.49-3.71-4.32,0-7.81,1.24-10.49,3.71-2.67,2.47-4,5.95-4,10.43,0,4.48,1.34,7.95,4,10.43,2.67,2.47,6.17,3.71,10.49,3.71m0,17.67c-4.56,0-8.68-.83-12.37-2.47-3.69-1.65-6.85-3.91-9.48-6.78-2.63-2.87-4.65-6.24-6.07-10.13-1.41-3.89-2.12-8.03-2.12-12.43,0-4.4,.71-8.54,2.12-12.43,1.42-3.89,3.44-7.26,6.07-10.13,2.63-2.87,5.79-5.12,9.48-6.78,3.69-1.65,7.82-2.47,12.37-2.47,4.56,0,8.68,.83,12.37,2.47,3.69,1.65,6.86,3.91,9.49,6.78,2.63,2.87,4.65,6.24,6.07,10.13,1.41,3.89,2.12,8.03,2.12,12.43,0,4.4-.71,8.54-2.12,12.43-1.42,3.89-3.44,7.26-6.07,10.13-2.63,2.87-5.79,5.13-9.49,6.78-3.69,1.65-7.81,2.47-12.37,2.47"/><path class="b" d="M97.23,86.85c0,5.64,1.62,10.21,4.85,13.7,3.23,3.49,7.77,5.23,13.62,5.23,5.85,0,10.39-1.74,13.62-5.23,3.23-3.49,4.85-8.05,4.85-13.7s-1.62-10.21-4.85-13.7c-3.23-3.49-7.77-5.23-13.62-5.23s-10.39,1.74-13.62,5.23c-3.23,3.49-4.85,8.06-4.85,13.7M75.99,7.91h23.08V57.46h.31c2.67-3.59,6.08-6.13,10.24-7.62,4.15-1.49,8.64-2.23,13.47-2.23,5.33,0,10.1,1.1,14.31,3.31,4.21,2.21,7.77,5.16,10.7,8.85,2.92,3.69,5.18,7.93,6.77,12.7,1.59,4.77,2.39,9.77,2.39,15,0,5.65-.87,10.83-2.62,15.54-1.75,4.72-4.23,8.8-7.46,12.23-3.23,3.44-7.1,6.1-11.62,8-4.52,1.9-9.54,2.85-15.08,2.85-2.67,0-5.18-.36-7.54-1.08-2.36-.72-4.54-1.64-6.54-2.77-2-1.13-3.75-2.39-5.23-3.77-1.49-1.39-2.69-2.74-3.62-4.08h-.31v9.85h-21.24V7.91Z"/><path class="b" d="M201.06,80.71c0,1.34,.06,3,.18,5.01,.12,2,.45,3.93,1,5.77,.55,1.85,1.38,3.42,2.47,4.71,1.1,1.3,2.63,1.94,4.6,1.94,2.12,0,3.69-.9,4.71-2.71,1.02-1.81,1.53-3.69,1.53-5.66,0-1.73-.23-3.4-.71-5.01-.47-1.61-1.14-3.04-2-4.3-.86-1.25-1.96-2.25-3.3-3-1.34-.75-2.9-1.12-4.71-1.12h-3.77v4.36Zm17.91-4.36v.24c3.06,1.96,5.26,4.58,6.6,7.84,1.33,3.26,2,6.7,2,10.31,0,2.67-.37,5.24-1.12,7.72-.75,2.47-1.86,4.65-3.36,6.54-1.49,1.88-3.34,3.38-5.54,4.48-2.2,1.1-4.75,1.65-7.66,1.65-3.3,0-6.09-.61-8.37-1.83-2.28-1.22-4.16-2.87-5.66-4.95-1.49-2.08-2.65-4.46-3.48-7.13-.82-2.67-1.43-5.44-1.82-8.31-.39-2.87-.63-5.73-.71-8.6-.08-2.87-.12-5.52-.12-7.95-3.14,0-5.63,1.12-7.48,3.36-1.85,2.24-2.77,4.89-2.77,7.95,0,2.91,.61,5.56,1.82,7.95,1.22,2.4,2.89,4.54,5.01,6.42l-9.66,9.43c-3.06-3.3-5.36-7.15-6.89-11.55-1.53-4.4-2.3-8.96-2.3-13.67,0-5.18,.65-9.44,1.95-12.78,1.3-3.34,3.2-6.01,5.71-8.01,2.51-2,5.6-3.4,9.25-4.18,3.65-.78,7.88-1.18,12.66-1.18h29.1v16.26h-7.19Z"/></g></svg>