<svg width="70" height="71" viewBox="0 0 70 71" fill="none" xmlns="http://www.w3.org/2000/svg">
<path d="M66.262 60.6758V36.2644C66.2621 34.566 65.9156 32.8855 65.2435 31.3257C64.5715 29.766 63.588 28.3599 62.3535 27.1935L39.3551 5.45843C38.1968 4.36334 36.6633 3.75317 35.0692 3.75317C33.4752 3.75317 31.9417 4.36334 30.7834 5.45843L7.78497 27.1935C6.55044 28.3599 5.56702 29.766 4.89496 31.3257C4.2229 32.8855 3.87635 34.566 3.87653 36.2644V60.6758C3.87653 62.3303 4.5338 63.9171 5.70375 65.0871C6.87371 66.257 8.4605 66.9143 10.1151 66.9143H60.0234C61.678 66.9143 63.2648 66.257 64.4347 65.0871C65.6047 63.9171 66.262 62.3303 66.262 60.6758Z" fill="white" stroke="white" stroke-width="6.23854" stroke-linecap="round" stroke-linejoin="round"/>
</svg>
