<svg width="40" height="41" viewBox="0 0 40 41" fill="none" xmlns="http://www.w3.org/2000/svg">
<path d="M16.8543 34.5016C20.5938 34.5009 24.2255 33.249 27.1713 30.9454L36.4327 40.2068L39.4117 37.2278L30.1503 27.9664C32.4551 25.0204 33.7077 21.3878 33.7086 17.6473C33.7086 8.35428 26.1474 0.793015 16.8543 0.793015C7.56126 0.793015 0 8.35428 0 17.6473C0 26.9404 7.56126 34.5016 16.8543 34.5016ZM16.8543 5.00659C23.8257 5.00659 29.495 10.676 29.495 17.6473C29.495 24.6187 23.8257 30.2881 16.8543 30.2881C9.88294 30.2881 4.21358 24.6187 4.21358 17.6473C4.21358 10.676 9.88294 5.00659 16.8543 5.00659Z" fill="white"/>
</svg>
