<?xml version="1.0" encoding="UTF-8"?><svg id="a" xmlns="http://www.w3.org/2000/svg" viewBox="0 0 1080 1080"><defs><style>.b{fill:#0064c8;}.c{fill:#fff;}</style></defs><rect class="b" width="1080" height="1080" rx="125.33" ry="125.33"/><g><path class="c" d="M521.39,793.12c.14-21.8-1.53-42.02-6.09-61.91-2.86-12.46-6.9-24.51-14.42-35.1-.67-.95-1.38-1.88-2.2-2.7-14.18-14.21-28.41-28.39-42.55-42.64-1.36-1.37-2.06-1.43-3.45-.02-12.31,12.43-24.7,24.79-37.09,37.15-6.2,6.18-13.74,7.37-20.92,3.4-8.7-4.81-11.04-16.52-4.82-24.31,1.09-1.36,2.29-2.64,3.53-3.88,11.88-11.93,23.74-23.87,35.69-35.71,1.51-1.5,1.4-2.2-.04-3.64-14.2-14.08-28.28-28.28-42.47-42.37-4.25-4.22-9.6-6.83-15.01-9.24-13.5-6.02-27.78-9.09-42.35-11.01-16.05-2.12-32.18-2.91-48.36-2.53-4.08,.1-8.16,.46-12.23,.46-7.25,0-12.7-3.16-15.66-9.89-2.91-6.6-1.79-12.76,3-18.08,27.79-30.9,61.1-53.83,100.02-68.41,20.5-7.68,41.68-12.64,63.52-14.63,9.22-.84,18.44-1.38,27.69-1.15,1.76,.04,2.83-.43,3.85-1.94,17.44-25.82,35.81-50.96,55.79-74.89,26.54-31.79,54.88-61.81,88.51-86.32,30.34-22.12,63.67-37.92,100.29-46.61,29.21-6.93,58.76-8.72,88.56-5.41,14.48,1.61,28.76,4.42,42.69,8.87,6.37,2.03,10.51,6.08,12.5,12.45,7.46,23.97,10.74,48.56,10.46,73.61-.53,46.51-12.71,89.86-35.67,130.26-14.42,25.37-32.5,47.91-52.73,68.81-31.86,32.91-67.36,61.52-104.56,88.11-7.18,5.13-14.45,10.13-21.74,15.09-1.45,.99-2.09,1.99-2.06,3.8,.15,12.84-.41,25.67-2.3,38.37-2.49,16.73-6.31,33.16-12.06,49.1-9.39,26.05-22.58,49.98-39.67,71.78-9.13,11.64-19.34,22.25-30.32,32.12-5.47,4.91-11.95,5.92-18.57,2.66-6.18-3.04-9.39-8.28-9.22-15.32,.16-6.58,.79-13.14,.49-18.32Zm294.84-468.99c.03-17.74-2.39-35.18-6.16-52.47-.34-1.54-1.22-1.7-2.37-1.97-13.25-3.06-26.65-4.95-40.24-5.74-24.4-1.42-48.41,.95-72,7.21-33.1,8.79-62.5,24.79-89.2,46.02-27.12,21.57-50.9,46.51-72.9,73.14-29.9,36.2-56.67,74.65-81.52,114.46-11.9,19.06-23.26,38.43-34.3,58-.47,.84-1.08,1.46,0,2.53,11.96,11.85,23.85,23.75,35.71,35.69,1,1,1.53,.79,2.37-.1,1.77-1.88,3.64-3.67,5.46-5.5,21.09-21.09,42.18-42.19,63.28-63.27,5.2-5.19,13.17-6.59,19.32-3.47,10.46,5.31,12.43,18.69,3.95,27.17-22.67,22.7-45.35,45.38-68.08,68.02-1.38,1.37-1.41,2.07,0,3.45,10.63,10.46,21.17,21.01,31.74,31.53,1.42,1.41,2.74,3.75,4.31,3.93,1.68,.19,3.62-1.62,5.41-2.62,60.66-34.06,118.63-72.11,172.18-116.65,23.74-19.75,45.98-41.04,65.66-64.91,12.22-14.82,23.13-30.56,31.83-47.69,17.03-33.52,25.53-69.16,25.55-106.79Zm-506.09,201.8c6.81,.19,12.95,.66,19.05,1.43,20.25,2.55,39.78,7.82,58.52,15.93,1.64,.71,2.31,.54,3.19-1.06,7.6-13.86,15.62-27.48,23.86-40.96,4.16-6.8,8.36-13.56,12.75-20.69-43.57,3.72-82.39,18.59-117.37,45.35Zm243.97,243.7c26.63-34.9,41.19-73.77,45.19-116.99-.85,.5-1.55,.9-2.23,1.33-19.15,12.05-38.63,23.54-58.37,34.59-2.24,1.25-2.73,2.1-1.66,4.6,7.92,18.43,13.18,37.61,15.5,57.57,.7,6.08,1.23,12.17,1.58,18.9Z"/><path class="c" d="M335.5,652.22c.13,4.68-1.86,8.48-4.75,12-9.62,11.71-19.18,23.46-28.76,35.2-13.95,17.09-27.91,34.18-41.87,51.26-4.66,5.71-10.64,8-17.77,6-6.99-1.97-11.09-6.88-12.04-14.09-.64-4.84,.87-9.16,3.99-12.97,18.87-23.06,37.7-46.15,56.54-69.23,4.84-5.93,9.65-11.88,14.5-17.8,7.1-8.67,18.59-9.34,25.93-1.53,2.63,2.8,4.24,7.04,4.23,11.16Z"/><path class="c" d="M428.19,744.51c6.75,0,12.65,4.1,15.08,10.78,2.5,6.87,.54,14.01-5.36,18.84-19.64,16.07-39.33,32.08-58.99,48.13-9.48,7.74-18.93,15.51-28.42,23.24-7.36,5.99-16.27,5.81-22.89-.39-7.24-6.79-6.57-18.4,1.7-25.24,14.48-11.99,29.09-23.84,43.65-35.73,14.31-11.69,28.65-23.35,42.96-35.04,3.45-2.82,7.25-4.69,12.27-4.58Z"/><path class="c" d="M252.78,811.5c-.06-5.64,1.91-9.82,5.41-13.32,25.15-25.15,50.29-50.32,75.49-75.42,5.05-5.03,11.19-6.53,17.92-4.01,6.33,2.37,9.91,7.21,10.62,13.9,.59,5.55-1.51,10.18-5.47,14.13-20.1,20.07-40.13,40.21-60.23,60.29-5.48,5.47-10.67,11.25-16.56,16.28-5.16,4.4-11.17,5.07-17.3,2.46-6.44-2.74-9.46-8.05-9.89-14.31Z"/><path class="c" d="M614.42,399.12c.49-35.41,29.4-64.72,65.72-64.38,36.98,.35,66.19,30.61,65.09,67.09-1.08,35.81-30.21,65.39-68.9,63.63-34.59-1.57-62.46-30.64-61.91-66.34Zm33.26,.8c-.5,17.27,13.54,31.6,31.45,32.1,17.7,.49,32.23-13.1,32.77-30.66,.55-17.93-13.27-32.72-31.09-33.26-18.02-.54-32.6,13.47-33.13,31.81Z"/></g></svg>