<?xml version="1.0" encoding="UTF-8"?><svg id="a" xmlns="http://www.w3.org/2000/svg" viewBox="0 0 1080 1080"><defs><style>.b{font-family:FiraSans-Bold, Fira Sans;font-size:117.39px;}.b,.c{fill:#fff;}.d{letter-spacing:.02em;}.e{fill:#0064c8;}.f{letter-spacing:0em;}</style></defs><rect class="e" width="1080" height="1080" rx="125.33" ry="125.33"/><g><path class="c" d="M523.79,680.56c.12-18.99-1.33-36.6-5.31-53.93-2.49-10.85-6.01-21.35-12.56-30.57-.58-.82-1.2-1.64-1.91-2.35-12.36-12.38-24.75-24.73-37.07-37.14-1.18-1.19-1.79-1.25-3.01-.02-10.73,10.83-21.51,21.6-32.31,32.36-5.4,5.38-11.97,6.42-18.23,2.96-7.58-4.19-9.62-14.39-4.2-21.18,.95-1.19,2-2.3,3.07-3.38,10.34-10.39,20.68-20.79,31.09-31.11,1.32-1.3,1.22-1.92-.04-3.17-12.37-12.27-24.63-24.64-37-36.91-3.71-3.68-8.36-5.95-13.08-8.05-11.76-5.24-24.2-7.92-36.89-9.59-13.98-1.85-28.03-2.54-42.13-2.21-3.55,.08-7.11,.4-10.66,.4-6.31,0-11.06-2.76-13.64-8.61-2.53-5.75-1.56-11.12,2.61-15.75,24.21-26.92,53.22-46.89,87.13-59.6,17.85-6.69,36.3-11.01,55.34-12.75,8.03-.73,16.06-1.2,24.12-1,1.53,.04,2.46-.38,3.35-1.69,15.19-22.49,31.2-44.4,48.6-65.24,23.12-27.69,47.8-53.84,77.1-75.2,26.43-19.27,55.47-33.04,87.37-40.6,25.45-6.04,51.19-7.59,77.15-4.71,12.61,1.4,25.05,3.85,37.18,7.72,5.55,1.77,9.16,5.3,10.89,10.85,6.5,20.88,9.36,42.3,9.11,64.12-.46,40.52-11.07,78.28-31.08,113.47-12.56,22.1-28.32,41.74-45.94,59.94-27.75,28.67-58.68,53.59-91.08,76.75-6.25,4.47-12.59,8.82-18.94,13.15-1.27,.86-1.82,1.73-1.8,3.31,.13,11.19-.36,22.36-2.01,33.43-2.17,14.57-5.5,28.88-10.51,42.77-8.18,22.69-19.67,43.54-34.56,62.53-7.95,10.14-16.85,19.39-26.41,27.98-4.76,4.28-10.41,5.15-16.18,2.32-5.38-2.65-8.18-7.21-8.03-13.35,.14-5.73,.68-11.45,.43-15.96Zm256.85-408.55c.02-15.45-2.09-30.64-5.37-45.71-.29-1.34-1.06-1.49-2.06-1.72-11.54-2.66-23.22-4.31-35.05-5-21.25-1.24-42.17,.83-62.72,6.28-28.83,7.65-54.45,21.59-77.7,40.09-23.63,18.79-44.34,40.51-63.51,63.72-26.05,31.53-49.37,65.03-71.01,99.71-10.36,16.6-20.26,33.48-29.88,50.53-.41,.73-.94,1.27,0,2.2,10.41,10.32,20.78,20.69,31.11,31.09,.87,.87,1.33,.69,2.06-.09,1.54-1.64,3.17-3.2,4.76-4.79,18.37-18.37,36.74-36.75,55.13-55.12,4.53-4.52,11.47-5.74,16.83-3.02,9.11,4.62,10.82,16.28,3.44,23.67-19.75,19.77-39.5,39.53-59.3,59.25-1.2,1.2-1.22,1.81,0,3.01,9.26,9.11,18.44,18.31,27.65,27.47,1.23,1.23,2.39,3.27,3.75,3.43,1.47,.17,3.16-1.41,4.72-2.28,52.84-29.67,103.34-62.81,149.99-101.62,20.68-17.21,40.05-35.75,57.2-56.54,10.64-12.91,20.15-26.62,27.73-41.54,14.83-29.2,22.24-60.25,22.25-93.03Zm-440.87,175.79c5.94,.17,11.28,.58,16.59,1.24,17.64,2.22,34.66,6.81,50.98,13.88,1.43,.62,2.02,.47,2.78-.92,6.62-12.07,13.6-23.94,20.79-35.68,3.62-5.92,7.28-11.82,11.11-18.02-37.95,3.24-71.77,16.2-102.25,39.51Zm212.53,212.3c23.2-30.4,35.89-64.27,39.37-101.91-.74,.44-1.35,.78-1.95,1.16-16.68,10.5-33.65,20.51-50.85,30.13-1.95,1.09-2.38,1.83-1.44,4.01,6.9,16.06,11.48,32.76,13.5,50.15,.61,5.3,1.07,10.6,1.37,16.47Z"/><path class="c" d="M361.85,557.82c.11,4.08-1.62,7.39-4.14,10.45-8.38,10.2-16.71,20.44-25.06,30.66-12.16,14.89-24.31,29.78-36.47,44.66-4.06,4.97-9.27,6.97-15.48,5.23-6.09-1.71-9.66-5.99-10.49-12.28-.56-4.22,.76-7.98,3.48-11.3,16.43-20.09,32.84-40.2,49.25-60.31,4.22-5.16,8.41-10.35,12.63-15.51,6.19-7.55,16.19-8.14,22.59-1.33,2.29,2.44,3.69,6.13,3.69,9.73Z"/><path class="c" d="M442.6,638.21c5.88,0,11.02,3.57,13.14,9.39,2.18,5.98,.47,12.21-4.67,16.41-17.11,14-34.26,27.95-51.39,41.93-8.26,6.74-16.49,13.51-24.76,20.24-6.41,5.22-14.17,5.06-19.94-.34-6.31-5.92-5.72-16.03,1.48-21.99,12.62-10.44,25.34-20.77,38.03-31.13,12.47-10.18,24.95-20.34,37.42-30.52,3.01-2.45,6.31-4.09,10.69-3.99Z"/><path class="c" d="M289.79,696.58c-.06-4.91,1.66-8.56,4.71-11.61,21.91-21.91,43.81-43.83,65.77-65.7,4.4-4.38,9.75-5.68,15.61-3.49,5.52,2.06,8.63,6.28,9.25,12.1,.52,4.83-1.32,8.87-4.77,12.31-17.51,17.48-34.96,35.03-52.47,52.52-4.77,4.77-9.29,9.8-14.43,14.18-4.5,3.84-9.73,4.42-15.07,2.14-5.61-2.39-8.24-7.01-8.61-12.47Z"/><path class="c" d="M604.83,337.34c.43-30.85,25.61-56.38,57.25-56.09,32.22,.3,57.66,26.66,56.7,58.45-.94,31.19-26.32,56.97-60.02,55.43-30.13-1.37-54.41-26.69-53.93-57.79Zm28.98,.7c-.44,15.05,11.79,27.53,27.4,27.96,15.42,.43,28.08-11.41,28.55-26.71,.48-15.62-11.56-28.51-27.08-28.97-15.69-.47-28.4,11.73-28.86,27.71Z"/></g><g><text class="b" transform="translate(324.77 932.44)"><tspan class="d" x="0" y="0">Busine</tspan><tspan class="f" x="373.19" y="0">s</tspan><tspan class="d" x="430.95" y="0">s</tspan></text><g><path class="c" d="M274.64,862.27c0,1.58,.45,2.87,1.36,3.85,.91,.98,2.18,1.47,3.83,1.47s2.92-.49,3.83-1.47c.91-.98,1.36-2.26,1.36-3.85s-.45-2.87-1.36-3.85c-.91-.98-2.18-1.47-3.83-1.47s-2.92,.49-3.83,1.47c-.91,.98-1.36,2.26-1.36,3.85m-6.48,0c0-1.67,.3-3.18,.91-4.54,.6-1.35,1.43-2.51,2.49-3.48,1.05-.96,2.29-1.71,3.72-2.23,1.43-.52,2.95-.78,4.56-.78s3.13,.26,4.56,.78c1.43,.52,2.67,1.26,3.72,2.23,1.05,.97,1.88,2.13,2.49,3.48,.6,1.36,.91,2.87,.91,4.54s-.3,3.18-.91,4.54c-.61,1.36-1.43,2.52-2.49,3.48-1.05,.97-2.29,1.71-3.72,2.23-1.43,.52-2.95,.78-4.56,.78s-3.13-.26-4.56-.78c-1.43-.52-2.67-1.26-3.72-2.23-1.05-.97-1.88-2.13-2.49-3.48-.6-1.35-.91-2.87-.91-4.54"/><path class="c" d="M280.1,885.26c-2.07,0-3.75,.59-5.02,1.78-1.28,1.19-1.92,2.85-1.92,5s.64,3.81,1.92,5c1.28,1.19,2.95,1.78,5.02,1.78s3.75-.59,5.03-1.78c1.28-1.19,1.92-2.85,1.92-5s-.64-3.81-1.92-5c-1.28-1.19-2.96-1.78-5.03-1.78m28.96-7.79v8.47h-18.18v.11c1.32,.98,2.25,2.23,2.79,3.76,.55,1.52,.82,3.17,.82,4.94,0,1.96-.4,3.71-1.21,5.25-.81,1.54-1.89,2.85-3.25,3.92-1.36,1.07-2.91,1.9-4.66,2.48-1.75,.58-3.59,.88-5.5,.88-2.07,0-3.97-.32-5.7-.96-1.73-.64-3.23-1.55-4.49-2.74-1.26-1.19-2.24-2.61-2.94-4.26-.7-1.66-1.04-3.5-1.04-5.53,0-.98,.13-1.9,.39-2.77,.26-.87,.6-1.67,1.02-2.4,.41-.73,.88-1.37,1.38-1.92,.51-.55,1.01-.99,1.5-1.33v-.11h-3.61v-7.79h42.68Z"/><path class="c" d="M282.36,923.36c-.49,0-1.1,.02-1.84,.06s-1.44,.17-2.12,.37c-.68,.2-1.25,.5-1.73,.91-.48,.4-.71,.97-.71,1.69,0,.78,.33,1.35,.99,1.73,.66,.37,1.35,.56,2.08,.56,.63,0,1.25-.09,1.84-.26,.59-.17,1.12-.42,1.58-.73,.46-.32,.83-.72,1.1-1.21,.27-.49,.41-1.07,.41-1.73v-1.38h-1.6Zm1.6,6.57h-.09c-.72,1.12-1.68,1.93-2.87,2.42-1.2,.49-2.46,.73-3.78,.73-.98,0-1.92-.14-2.83-.41-.91-.27-1.71-.68-2.4-1.23-.69-.55-1.24-1.23-1.64-2.03-.4-.81-.61-1.74-.61-2.81,0-1.21,.22-2.23,.67-3.07,.45-.84,1.05-1.53,1.82-2.08,.76-.55,1.63-.97,2.62-1.28,.98-.3,1.99-.53,3.05-.67,1.05-.14,2.1-.23,3.16-.26,1.05-.03,2.02-.04,2.92-.04,0-1.15-.41-2.07-1.23-2.74-.82-.68-1.79-1.02-2.92-1.02-1.07,0-2.04,.22-2.92,.67-.88,.45-1.66,1.06-2.36,1.84l-3.46-3.54c1.21-1.12,2.62-1.97,4.24-2.53,1.61-.56,3.29-.84,5.01-.84,1.9,0,3.46,.24,4.69,.71,1.22,.48,2.2,1.17,2.94,2.1,.74,.92,1.25,2.05,1.53,3.39,.29,1.34,.43,2.89,.43,4.65v10.68h-5.97v-2.64Z"/></g></g></svg>