<?xml version="1.0" encoding="utf-8"?>
<!-- Generator: Adobe Illustrator 26.1.0, SVG Export Plug-In . SVG Version: 6.00 Build 0)  -->
<svg version="1.1" id="Laag_1" xmlns="http://www.w3.org/2000/svg" xmlns:xlink="http://www.w3.org/1999/xlink" x="0px" y="0px"
	 viewBox="0 0 1080 1080" style="enable-background:new 0 0 1080 1080;" xml:space="preserve">
<style type="text/css">
	.st0{fill:#FFFFFF;}
</style>
<g>
	<g>
		<path class="st0" d="M508.4,967.4c0.2-36.8-2.6-70.9-10.3-104.5c-4.8-21-11.7-41.4-24.3-59.3c-1.1-1.6-2.3-3.2-3.7-4.6
			c-23.9-24-48-47.9-71.9-72c-2.3-2.3-3.5-2.4-5.8,0c-20.8,21-41.7,41.9-62.6,62.7c-10.5,10.4-23.2,12.5-35.3,5.7
			c-14.7-8.1-18.6-27.9-8.1-41c1.8-2.3,3.9-4.5,6-6.5c20.1-20.1,40.1-40.3,60.3-60.3c2.5-2.5,2.4-3.7-0.1-6.1
			c-24-23.8-47.7-47.8-71.7-71.5c-7.2-7.1-16.2-11.5-25.3-15.6c-22.8-10.2-46.9-15.3-71.5-18.6c-27.1-3.6-54.3-4.9-81.7-4.3
			c-6.9,0.2-13.8,0.8-20.7,0.8c-12.2,0-21.4-5.3-26.4-16.7c-4.9-11.1-3-21.5,5.1-30.5c46.9-52.2,103.2-90.9,168.9-115.5
			c34.6-13,70.4-21.3,107.3-24.7c15.6-1.4,31.1-2.3,46.8-1.9c3,0.1,4.8-0.7,6.5-3.3c29.4-43.6,60.5-86.1,94.2-126.4
			c44.8-53.7,92.7-104.4,149.4-145.8c51.2-37.3,107.5-64,169.3-78.7c49.3-11.7,99.2-14.7,149.5-9.1c24.4,2.7,48.6,7.5,72.1,15
			c10.7,3.4,17.8,10.3,21.1,21c12.6,40.5,18.1,82,17.7,124.3c-0.9,78.5-21.5,151.7-60.2,219.9c-24.3,42.8-54.9,80.9-89,116.2
			C859.9,571.5,800,619.8,737.2,664.7c-12.1,8.7-24.4,17.1-36.7,25.5c-2.5,1.7-3.5,3.4-3.5,6.4c0.3,21.7-0.7,43.3-3.9,64.8
			c-4.2,28.2-10.7,56-20.4,82.9c-15.9,44-38.1,84.4-67,121.2c-15.4,19.7-32.7,37.6-51.2,54.2c-9.2,8.3-20.2,10-31.4,4.5
			c-10.4-5.1-15.9-14-15.6-25.9C507.9,987.2,508.9,976.1,508.4,967.4z M1006.3,175.5c0-29.9-4-59.4-10.4-88.6
			c-0.6-2.6-2.1-2.9-4-3.3c-22.4-5.2-45-8.4-67.9-9.7c-41.2-2.4-81.7,1.6-121.6,12.2c-55.9,14.8-105.5,41.9-150.6,77.7
			c-45.8,36.4-85.9,78.5-123.1,123.5c-50.5,61.1-95.7,126-137.6,193.3c-20.1,32.2-39.3,64.9-57.9,97.9c-0.8,1.4-1.8,2.5,0,4.3
			c20.2,20,40.3,40.1,60.3,60.3c1.7,1.7,2.6,1.3,4-0.2c3-3.2,6.1-6.2,9.2-9.3c35.6-35.6,71.2-71.2,106.8-106.8
			c8.8-8.8,22.2-11.1,32.6-5.9c17.7,9,21,31.6,6.7,45.9c-38.3,38.3-76.6,76.6-114.9,114.9c-2.3,2.3-2.4,3.5,0,5.8
			c17.9,17.7,35.7,35.5,53.6,53.2c2.4,2.4,4.6,6.3,7.3,6.6c2.8,0.3,6.1-2.7,9.1-4.4c102.4-57.5,200.3-121.7,290.7-197
			c40.1-33.3,77.6-69.3,110.9-109.6c20.6-25,39.1-51.6,53.7-80.5C991.9,299.3,1006.2,239.1,1006.3,175.5z M151.7,516.3
			c11.5,0.3,21.9,1.1,32.2,2.4c34.2,4.3,67.2,13.2,98.8,26.9c2.8,1.2,3.9,0.9,5.4-1.8c12.8-23.4,26.4-46.4,40.3-69.2
			c7-11.5,14.1-22.9,21.5-34.9C276.4,446,210.8,471.1,151.7,516.3z M563.7,927.7c45-58.9,69.6-124.6,76.3-197.5
			c-1.4,0.8-2.6,1.5-3.8,2.2c-32.3,20.4-65.2,39.8-98.6,58.4c-3.8,2.1-4.6,3.5-2.8,7.8c13.4,31.1,22.3,63.5,26.2,97.2
			C562.2,906.1,563.1,916.4,563.7,927.7z"/>
	</g>
	<g>
		<path class="st0" d="M194.5,729.5c0.2,7.9-3.1,14.3-8,20.3c-16.2,19.8-32.4,39.6-48.6,59.4c-23.6,28.9-47.1,57.7-70.7,86.6
			c-7.9,9.6-18,13.5-30,10.1c-11.8-3.3-18.7-11.6-20.3-23.8c-1.1-8.2,1.5-15.5,6.7-21.9c31.9-38.9,63.7-77.9,95.5-116.9
			c8.2-10,16.3-20.1,24.5-30.1c12-14.6,31.4-15.8,43.8-2.6C191.8,715.4,194.6,722.5,194.5,729.5z"/>
	</g>
	<g>
		<path class="st0" d="M351.1,885.3c11.4,0,21.4,6.9,25.5,18.2c4.2,11.6,0.9,23.7-9.1,31.8c-33.2,27.1-66.4,54.2-99.6,81.3
			c-16,13.1-32,26.2-48,39.2c-12.4,10.1-27.5,9.8-38.6-0.7c-12.2-11.5-11.1-31.1,2.9-42.6c24.5-20.2,49.1-40.3,73.7-60.3
			c24.2-19.7,48.4-39.4,72.5-59.2C336.2,888.3,342.6,885.1,351.1,885.3z"/>
	</g>
	<g>
		<path class="st0" d="M54.9,998.4c-0.1-9.5,3.2-16.6,9.1-22.5c42.5-42.5,84.9-85,127.5-127.3c8.5-8.5,18.9-11,30.3-6.8
			c10.7,4,16.7,12.2,17.9,23.5c1,9.4-2.6,17.2-9.2,23.9C196.5,923,162.7,957.1,128.7,991c-9.2,9.2-18,19-28,27.5
			c-8.7,7.4-18.9,8.6-29.2,4.2C60.7,1018,55.6,1009,54.9,998.4z"/>
	</g>
	<g>
		<path class="st0" d="M665.5,302.1c0.8-59.8,49.6-109.3,111-108.7c62.4,0.6,111.8,51.7,109.9,113.3c-1.8,60.5-51,110.4-116.3,107.4
			C711.6,411.5,664.6,362.4,665.5,302.1z M721.7,303.5c-0.8,29.2,22.9,53.4,53.1,54.2c29.9,0.8,54.4-22.1,55.3-51.8
			c0.9-30.3-22.4-55.3-52.5-56.2C747.2,248.9,722.6,272.5,721.7,303.5z"/>
	</g>
</g>
</svg>
